<svg width="107" height="42" viewBox="0 0 107 42" fill="none" xmlns="http://www.w3.org/2000/svg">
<path d="M14.5825 33.788C15.9381 35.4712 18.6241 35.0414 19.379 33.0206L27.6371 10.9141C28.4687 8.68803 26.2822 6.52126 24.043 7.35251L1.81478 15.6044C-0.218153 16.359 -0.644312 19.0285 1.05383 20.3709L5.35903 23.7741C6.02828 24.3032 6.97442 24.3109 7.65237 23.7929L18.0723 15.8313C18.3706 15.6034 18.7929 15.6306 19.059 15.895C19.3251 16.1593 19.3525 16.5787 19.1231 16.875L11.1101 27.2221C10.5875 27.8969 10.5965 28.839 11.1319 29.5038L14.5825 33.788Z" fill="#A64EFF"/>
<path d="M44.4923 28L41.5765 22.7076H40.7576V28H37.3425V13.9801H43.0743C44.1794 13.9801 45.118 14.1732 45.8903 14.5593C46.6758 14.9454 47.2616 15.478 47.6477 16.157C48.0338 16.8227 48.2269 17.5683 48.2269 18.3938C48.2269 19.3258 47.9606 20.1579 47.428 20.8902C46.9088 21.6225 46.1366 22.1418 45.1114 22.448L48.3467 28H44.4923ZM40.7576 20.2911H42.8746C43.5004 20.2911 43.9664 20.138 44.2726 19.8317C44.5921 19.5255 44.7519 19.0928 44.7519 18.5336C44.7519 18.001 44.5921 17.5816 44.2726 17.2754C43.9664 16.9692 43.5004 16.8161 42.8746 16.8161H40.7576V20.2911ZM55.4434 28.1598C54.3516 28.1598 53.3664 27.9268 52.4876 27.4608C51.6222 26.9948 50.9365 26.3291 50.4306 25.4636C49.938 24.5982 49.6917 23.5863 49.6917 22.428C49.6917 21.283 49.9446 20.2778 50.4506 19.4123C50.9565 18.5336 51.6489 17.8612 52.5276 17.3952C53.4063 16.9292 54.3916 16.6962 55.4833 16.6962C56.5751 16.6962 57.5604 16.9292 58.4391 17.3952C59.3178 17.8612 60.0102 18.5336 60.5161 19.4123C61.022 20.2778 61.275 21.283 61.275 22.428C61.275 23.573 61.0154 24.5849 60.4961 25.4636C59.9902 26.3291 59.2912 26.9948 58.3992 27.4608C57.5204 27.9268 56.5352 28.1598 55.4434 28.1598ZM55.4434 25.204C56.0958 25.204 56.6483 24.9644 57.101 24.4851C57.567 24.0057 57.8 23.3201 57.8 22.428C57.8 21.536 57.5737 20.8503 57.121 20.371C56.6816 19.8917 56.1357 19.652 55.4833 19.652C54.8176 19.652 54.2651 19.8917 53.8257 20.371C53.3864 20.837 53.1667 21.5226 53.1667 22.428C53.1667 23.3201 53.3797 24.0057 53.8058 24.4851C54.2451 24.9644 54.791 25.204 55.4434 25.204ZM66.5019 13.2212V28H63.0868V13.2212H66.5019ZM72.3919 13.2212V28H68.9768V13.2212H72.3919ZM76.5843 15.6977C75.9851 15.6977 75.4925 15.5246 75.1064 15.1784C74.7336 14.8189 74.5472 14.3796 74.5472 13.8603C74.5472 13.3278 74.7336 12.8884 75.1064 12.5422C75.4925 12.1827 75.9851 12.003 76.5843 12.003C77.1701 12.003 77.6494 12.1827 78.0222 12.5422C78.4083 12.8884 78.6014 13.3278 78.6014 13.8603C78.6014 14.3796 78.4083 14.8189 78.0222 15.1784C77.6494 15.5246 77.1701 15.6977 76.5843 15.6977ZM78.2818 16.856V28H74.8667V16.856H78.2818ZM87.5469 16.7362C88.8517 16.7362 89.8902 17.1622 90.6625 18.0144C91.448 18.8531 91.8408 20.0115 91.8408 21.4894V28H88.4457V21.9487C88.4457 21.2031 88.2526 20.6239 87.8665 20.2112C87.4804 19.7985 86.9611 19.5921 86.3087 19.5921C85.6563 19.5921 85.1371 19.7985 84.751 20.2112C84.3649 20.6239 84.1718 21.2031 84.1718 21.9487V28H80.7567V16.856H84.1718V18.3339C84.518 17.8413 84.984 17.4552 85.5698 17.1756C86.1556 16.8826 86.8147 16.7362 87.5469 16.7362ZM98.4478 16.6962C99.2334 16.6962 99.9191 16.856 100.505 17.1756C101.104 17.4951 101.563 17.9145 101.883 18.4337V16.856H105.298V27.98C105.298 29.0052 105.092 29.9306 104.679 30.756C104.279 31.5948 103.66 32.2605 102.822 32.7532C101.996 33.2458 100.964 33.4921 99.726 33.4921C98.075 33.4921 96.737 33.0993 95.7118 32.3138C94.6866 31.5416 94.1008 30.4898 93.9543 29.1583H97.3295C97.436 29.5844 97.6889 29.9172 98.0884 30.1569C98.4878 30.4099 98.9804 30.5364 99.5662 30.5364C100.272 30.5364 100.831 30.33 101.244 29.9172C101.67 29.5178 101.883 28.8721 101.883 27.98V26.4023C101.55 26.9215 101.091 27.3476 100.505 27.6805C99.9191 28 99.2334 28.1598 98.4478 28.1598C97.5292 28.1598 96.697 27.9268 95.9514 27.4608C95.2058 26.9815 94.6134 26.3091 94.174 25.4437C93.7479 24.5649 93.5349 23.5531 93.5349 22.408C93.5349 21.263 93.7479 20.2578 94.174 19.3924C94.6134 18.5269 95.2058 17.8612 95.9514 17.3952C96.697 16.9292 97.5292 16.6962 98.4478 16.6962ZM101.883 22.428C101.883 21.5759 101.643 20.9035 101.164 20.4109C100.698 19.9183 100.125 19.672 99.4464 19.672C98.7674 19.672 98.1882 19.9183 97.7089 20.4109C97.2429 20.8902 97.0099 21.5559 97.0099 22.408C97.0099 23.2601 97.2429 23.9392 97.7089 24.4451C98.1882 24.9377 98.7674 25.184 99.4464 25.184C100.125 25.184 100.698 24.9377 101.164 24.4451C101.643 23.9525 101.883 23.2801 101.883 22.428Z" fill="#4A494F"/>
</svg>
